<svg xmlns="http://www.w3.org/2000/svg" width="111" height="49" viewBox="0 0 111 49" fill="none"><path d="M55.7467 0C53.227 0 51.1846 2.03496 51.1846 4.5441C51.1846 7.05448 53.2276 9.08943 55.7467 9.08943C58.2664 9.08943 60.3088 7.05448 60.3088 4.5441C60.3088 2.03434 58.2658 0 55.7467 0ZM58.2171 4.95195L54.7785 6.90215C54.4511 7.11897 54.0145 6.88434 54.0145 6.49368V2.59391C54.0145 2.20264 54.4517 1.96923 54.7785 2.18544L58.2171 4.13564C58.5106 4.33035 58.5106 4.75847 58.2171 4.95195Z" fill="#FAFAFA"/><path d="M55.7461 18.0515C55.7325 18.0515 55.7202 18.0515 55.7066 18.0528C52.3396 18.0601 49.1971 19.019 46.5362 20.6749C46.4819 20.7093 46.4276 20.7437 46.374 20.7781C46.3068 20.8205 46.2371 20.8574 46.1631 20.8813C46.0545 20.9157 45.9386 20.9341 45.8183 20.9341C45.8183 20.9341 45.8171 20.9341 45.8165 20.9341C45.6722 20.9341 45.531 20.8948 45.4027 20.8309C45.3034 20.78 45.2029 20.729 45.1049 20.678C44.8039 20.522 44.5067 20.3592 44.2144 20.1897C42.9533 19.4618 41.7681 18.6173 40.6735 17.6738C38.4319 15.7371 36.5689 13.3772 35.2123 10.7182C35.182 10.6599 35.1524 10.6015 35.1235 10.5431C35.0754 10.4246 35.0495 10.2944 35.047 10.158C35.0377 9.54809 35.5687 9.04688 36.1823 9.04688H39.8632C40.1974 9.04688 40.499 9.19675 40.6994 9.43323C40.7598 9.53826 40.8227 9.64268 40.8862 9.74587C41.794 11.2243 42.9175 12.5572 44.2138 13.7009C44.5597 14.0062 44.9174 14.2973 45.2874 14.5744C48.1993 16.7574 51.8204 18.0515 55.7461 18.0515Z" fill="#FAFAFA"/><path opacity="0.8" d="M70.8199 17.6731C69.713 18.6282 68.5136 19.4795 67.2371 20.2129C66.938 20.3849 66.6352 20.5501 66.3275 20.7086L66.3263 20.7098L66.1191 20.8143C65.9748 20.8874 65.8169 20.9328 65.6553 20.9334C65.6541 20.9334 65.6529 20.9334 65.6522 20.9334H65.6479C65.4494 20.9322 65.2557 20.8659 65.0874 20.7596L64.8876 20.6325H64.8863C62.2402 19.0029 59.123 18.0594 55.7849 18.0521C55.7714 18.0508 55.759 18.0508 55.7455 18.0508C51.8197 18.0508 48.1987 16.7566 45.2861 14.573C48.4244 12.9766 51.9801 12.0762 55.7455 12.0762C59.5108 12.0762 63.0665 12.9766 66.2048 14.573C66.5538 14.7512 66.8979 14.9373 67.2365 15.132C68.5136 15.8654 69.713 16.7173 70.8199 17.6731Z" fill="#FAFAFA"/><path d="M76.4457 10.1408C76.4457 10.2833 76.4186 10.4185 76.3687 10.5431C76.3687 10.5438 76.368 10.5438 76.368 10.5438C76.3391 10.6015 76.3101 10.6599 76.2805 10.717C76.2811 10.7176 76.2805 10.7176 76.2805 10.7176C74.9232 13.3772 73.0602 15.7371 70.8186 17.6732C69.7117 16.718 68.5123 15.8661 67.2364 15.1327C66.8979 14.938 66.5538 14.7513 66.2041 14.5737C66.5587 14.3078 66.9034 14.0283 67.2364 13.7359C68.5505 12.5855 69.6889 11.2397 70.6059 9.74526C70.6694 9.64207 70.7317 9.53888 70.7915 9.43446C70.7915 9.43384 70.7921 9.43323 70.7927 9.43261C70.9938 9.19675 71.2941 9.04688 71.6296 9.04688H75.3475C75.9543 9.04688 76.4457 9.53642 76.4457 10.1408Z" fill="#FAFAFA"/><path d="M70.2979 28.9376V30.8994C70.2979 32.5554 68.9505 33.8975 67.288 33.8975H64.278C63.7033 33.8975 63.2377 34.3619 63.2377 34.9337V47.9635C63.2377 48.5359 62.7715 48.9997 62.1974 48.9997H57.2177C56.643 48.9997 56.1774 48.5353 56.1774 47.9635V34.9337C56.1774 34.3613 55.7112 33.8975 55.1371 33.8975H52.1271C50.4646 33.8975 49.1172 32.5554 49.1172 30.8994V28.9376C49.1172 28.3651 49.5834 27.9014 50.1575 27.9014H69.2588C69.8317 27.9008 70.2979 28.3651 70.2979 28.9376Z" fill="#FAFAFA"/><path d="M111 28.9522V47.9382C111 48.5015 110.542 48.9578 109.977 48.9578H107.482C106.51 48.9578 105.631 48.5653 104.994 47.9315C104.358 47.2976 103.964 46.4217 103.964 45.4536V42.9691C103.964 42.4058 103.506 41.9494 102.94 41.9494H97.9515C97.386 41.9494 96.9278 42.4058 96.9278 42.9691V45.4536C96.9278 47.3891 95.3528 48.9578 93.4097 48.9578H90.9153C90.3498 48.9578 89.8916 48.5015 89.8916 47.9382V28.9522C89.8916 28.389 90.3498 27.9326 90.9153 27.9326H93.4097C94.3816 27.9326 95.2609 28.3251 95.8973 28.959C96.5337 29.5929 96.9278 30.4688 96.9278 31.4368V33.9214C96.9278 34.4846 97.386 34.941 97.9515 34.941H102.94C103.506 34.941 103.964 34.4846 103.964 33.9214V31.4368C103.964 30.4688 104.358 29.5929 104.994 28.959C105.631 28.3251 106.51 27.9326 107.482 27.9326H109.977C110.542 27.9326 111 28.389 111 28.9522Z" fill="#FAFAFA"/><path d="M77.7336 35.9932C77.0966 36.627 76.7032 37.5029 76.7032 38.471C76.7032 39.439 77.0966 40.3143 77.7336 40.9488C78.37 41.5827 79.2494 41.9752 80.2213 41.9752H83.7394C84.7113 41.9752 85.59 42.3671 86.227 43.0016C86.8634 43.6355 87.2575 44.5114 87.2575 45.4794V47.9547C87.2575 48.518 86.7987 48.9744 86.2338 48.9744L80.2213 48.9842C78.9873 48.9842 77.8033 48.7735 76.7032 48.3859C73.7043 47.3301 71.3277 44.9628 70.2676 41.9758C69.8785 40.88 69.667 39.7001 69.667 38.4716C69.667 37.2425 69.8785 36.0632 70.2676 34.9674C70.798 33.4742 71.657 32.1352 72.7584 31.0381C73.8597 29.9411 75.2034 29.0855 76.7032 28.5572C77.8033 28.1697 78.9873 27.959 80.2213 27.959H86.2338C86.7987 27.959 87.2575 28.4154 87.2575 28.9786V31.4632C87.2575 33.398 85.6819 34.9674 83.7394 34.9674H80.2213C79.2494 34.9668 78.37 35.3587 77.7336 35.9932Z" fill="#FAFAFA"/><path d="M53.2461 48.0273C53.2467 48.5623 52.8083 48.9997 52.2718 48.9997H48.1715C46.7705 48.9997 45.5599 48.1877 44.9895 47.0108L44.9877 47.0065L44.9309 46.8849L44.926 46.8732L44.9248 46.8713L44.9161 46.8505L44.638 46.2485L42.6653 41.9618L41.6755 39.8083C41.4517 39.323 40.7598 39.323 40.5359 39.8083L39.5449 41.9618L37.5722 46.2485L37.2953 46.8505L37.2861 46.8713L37.2849 46.8732L37.2799 46.8849L37.2232 47.0065L37.222 47.0108C36.9352 47.5992 36.49 48.0967 35.9411 48.4469C35.3923 48.797 34.7399 48.9997 34.0387 48.9997H29.9971C29.4945 48.9997 29.0468 48.6434 28.9759 48.1477C28.9635 48.0599 28.9604 47.9733 28.9678 47.8897C28.9777 47.7706 29.0166 47.6551 29.0702 47.5482L37.9589 29.8018C38.5441 28.6636 39.733 27.8848 41.1057 27.8848C42.4772 27.8848 43.6668 28.6636 44.2514 29.8018L44.2902 29.878L53.1376 47.5433C53.2091 47.6858 53.2461 47.8425 53.2461 48.0015V48.0273Z" fill="#FAFAFA"/><path d="M35.2759 28.9065C35.2759 29.0668 35.2383 29.2253 35.1662 29.369L26.1912 47.1271C26.0284 47.4263 25.823 47.699 25.5837 47.9373C24.9461 48.5724 24.0637 48.9661 23.0893 48.9661C22.3795 48.9661 21.7185 48.7567 21.1659 48.3974C20.96 48.2641 20.7688 48.1087 20.5949 47.9373C20.3365 47.6793 20.117 47.3802 19.948 47.0522L18.2411 43.6506C17.9956 43.161 17.2939 43.1604 17.046 43.6493L15.2885 47.1271C15.1257 47.4263 14.9197 47.699 14.681 47.9373C14.5078 48.1093 14.316 48.2641 14.11 48.3974C13.5568 48.7567 12.8964 48.9661 12.1866 48.9661C11.2123 48.9661 10.3298 48.5724 9.69218 47.9373C9.43318 47.6793 9.21365 47.3802 9.0453 47.0522L0.0659835 29.1657C0.0265167 29.0852 0 28.9968 0 28.9077V28.9065C0 28.342 0.458802 27.8838 1.02675 27.8838H5.1313C5.84109 27.8838 6.50216 28.0932 7.05592 28.4526C7.26189 28.5859 7.45244 28.7413 7.62573 28.9139C7.88473 29.1712 8.10426 29.4697 8.27261 29.7977L11.5884 36.4038C11.8351 36.894 12.5375 36.894 12.7835 36.4038L13.6931 34.5918L11.026 29.2793C10.7054 28.6381 11.1722 27.8838 11.8918 27.8838H16.0346C16.367 27.8838 16.6889 27.9299 16.9942 28.0159C17.5825 28.1817 18.1085 28.495 18.529 28.9132C18.788 29.1706 19.007 29.4691 19.1759 29.7971L22.4918 36.4032C22.7372 36.8934 23.4402 36.8934 23.6869 36.4032L24.4367 34.9112L27.0033 29.7977C27.2845 29.2511 27.7057 28.7867 28.22 28.4526C28.7738 28.0932 29.4348 27.8838 30.1446 27.8838H34.2492C34.8165 27.8838 35.2759 28.342 35.2759 28.9065Z" fill="#FAFAFA"/></svg>